<svg width="64" height="64" viewBox="0 0 64 64" fill="none" xmlns="http://www.w3.org/2000/svg">
<g clip-path="url(#clip0_3_345)">
<path d="M60.75 36.875C60.75 36.875 63.375 34.5125 63.375 28.45C63.375 22.3875 58.1875 16.75 57.5375 11.8C56.9125 7.0125 54.9625 0.625 44.8125 0.625C35.425 0.625 33.75 8.8 33.75 13.4C33.75 18 35.25 22.75 35.625 25.75V36.875H60.75Z" fill="#E36414"/>
<path d="M55.2875 12.8125C55.5 15.1875 53.6875 18.2125 54.375 20.3C55.0625 22.375 57.2625 27.3625 53.625 30.65C50 33.9375 42.75 34.15 40.0625 29.8C37.375 25.45 35.875 13.4 35.875 13.4L55.2875 12.8125Z" fill="#B24E10"/>
<path d="M38.125 50.5125L37.6875 46.3875L40.7875 29.3375C42.0875 29.0875 43.35 28.2 43.825 26.9875L43.3625 23.6625L48.75 22.25L49.2 26.3C53 29.6125 56.475 27.675 58.9875 30.625C62.4875 34.7375 59.8625 47.1125 58.9875 52.7375C58.1125 58.3625 60.7625 63.3625 60.7625 63.3625H40.875L38.125 50.5125Z" fill="#EF917B"/>
<path d="M59 52.75C59.875 47.125 62.5 34.75 59 30.6375C59 34.6875 49.125 54.7 53.9625 63.375H60.775C60.7625 63.375 58.125 58.375 59 52.75Z" fill="#E96B4E"/>
<path d="M51.65 27.8375C51.4125 28.1875 47 34.4875 45.5875 39.0125C45.5875 39.0125 42.4625 36.15 41.625 32.7375L40.7875 29.3375C42.0875 29.0875 43.35 28.2 43.8375 26.9875L43.375 23.6625L48.7625 22.25L49.2125 26.3C50.0375 27.0375 50.85 27.5125 51.65 27.8375Z" fill="#F7C9AB"/>
<path fill-rule="evenodd" clip-rule="evenodd" d="M24.25 58.625H4.75V63.375H24.25V58.625Z" fill="#E96B4E"/>
<path d="M22.15 22.675L21.55 26.5L23.35 28.7125L32 33.75V58.625H4.75V63.375H0.625C0.625 63.375 0.8375 37.9375 2.775 33.25C4.25 29.7 11.675 28.075 11.675 28.075L14.8 26.325L15.475 21.8875L22.15 22.675Z" fill="#EBEAE0"/>
<path d="M23.35 28.7125L21.55 26.5L17.125 29.35L14.8 26.3125L11.675 28.0625L14.125 31.8125L17.125 29.35L18.8125 32.5L21.675 30.6375L23.35 28.7125Z" fill="#F5F4EF"/>
<path d="M41.125 38.75L41.625 32.725C41.625 32.725 42.6875 31.05 42.45 30.3625C42.2125 29.675 39.9 29.05 39.9 29.05C39.9 29.05 41 26.875 40.0625 26.25C39.125 25.625 36.9375 27.4375 36.9375 27.4375C36.9375 27.4375 34.925 24.4375 34.175 24.9375C33.425 25.4375 32.75 27.625 32.75 27.625C32.75 27.625 26.6 24.875 26.6 26.3125C26.6 27.7875 27.25 29 27.25 29C27.25 29 21.475 28.0625 21.475 29.5C21.475 30.875 22.625 32.5375 22.625 32.5375L22.875 38.75H41.125Z" fill="#DB3429"/>
<path d="M22.75 59.25H4.75001C4.52501 59.25 4.32501 59.125 4.21251 58.9375L2.71251 56.3375C2.60001 56.1375 2.60001 55.8875 2.72501 55.7L3.90001 53.8125L5.65001 36.525L6.88751 36.65L5.13751 54.075C5.12501 54.175 5.10001 54.2625 5.05001 54.3375L3.98751 56.025L5.11251 57.9875H22.75V59.25Z" fill="#D7D5C1"/>
<path d="M22.15 22.675L21.55 26.5L17.125 29.35L14.8 26.3125L15.475 21.875L22.15 22.675Z" fill="#F3AB7D"/>
<path d="M28.125 13.4C28.125 13.4 29.55 11.0125 30.8875 8.4625C32.525 5.3625 27.8375 1.925 25.1875 1.3C22.5375 0.675 20.675 2.0875 20.675 2.0875C20.675 2.0875 19.225 0.625 16.0125 0.625C12.8 0.625 9.95001 2.9 9.87501 6.025C9.81251 8.4 11.675 11.75 11.675 11.75L19.75 17.3125L28.125 13.4Z" fill="#DB3429"/>
<path d="M30.35 15.875C29.675 17.0625 28.1125 17.6125 26.775 17.15L28.1375 13.4C28.1375 13.4 28.875 12.625 30.05 12.85C31.225 13.075 31.025 14.7 30.35 15.875Z" fill="#F3AB7D"/>
<path d="M12 15.3875C10.4625 15.725 9.42501 14.9125 8.82501 13.4C8.22501 11.9 8.71251 10.925 9.91251 10.775C11.1125 10.625 11.675 11.75 11.675 11.75L12 15.3875Z" fill="#F3AB7D"/>
<path d="M28.125 13.4L25.2 21.475L20.4625 23.3375L16.85 22.9375L12.375 19.5875L11.675 11.75C15.45 11.85 16.65 2.3625 19.8 6.025C24.0875 2.525 24.525 13.55 28.125 13.4Z" fill="#F7C9AB"/>
<path d="M17.375 13.35C16.45 12.325 15.5625 12.9875 15.4 13.125L14.575 12.1875C15.1125 11.7125 16.825 10.8625 18.3 12.5125L17.375 13.35Z" fill="#B24E10"/>
<path d="M18.2625 10.775C16.7 9.26249 14.65 10.4 14.625 10.4125L14.0125 9.32499C15.0125 8.76249 17.3625 8.16249 19.1375 9.87499L18.2625 10.775Z" fill="#B24E10"/>
<path d="M25.45 11.55C23.9125 10.05 21.9 11.1375 21.8125 11.1875L21.2 10.1C22.2 9.53749 24.55 8.93749 26.325 10.65L25.45 11.55Z" fill="#B24E10"/>
<path d="M19.55 19.3875C18.125 19.3875 16.95 18.6875 16.3875 18.15L17.25 17.25C17.325 17.325 19.0625 18.925 21.2375 17.6625L21.8625 18.75C21.0625 19.2125 20.275 19.3875 19.55 19.3875Z" fill="#E36414"/>
<path d="M49.075 25.15L48.7625 22.2625L43.375 23.675L43.7 26.05C44.6125 26.35 45.5875 26.5 46.575 26.5C47.1875 26.5 48.125 25.95 49.075 25.15Z" fill="#F3AB7D"/>
<path d="M52.325 11.75L51.7875 17.7C51.5875 19.925 47.5125 24 45.825 24C42.45 24 39.25 22.1875 37.95 19.125L35.875 13.4C37.25 11.75 42.75 3.75001 46.25 4.31251C47.25 7.01251 50.375 11.5 52.325 11.75Z" fill="#F7C9AB"/>
<path d="M54.9875 13.9625C54.3875 15.4625 53.5625 15.65 51.9625 15.6875L52.325 11.7375C52.325 11.7375 52.8875 10.6125 54.0875 10.7625C55.2875 10.925 55.5875 12.4625 54.9875 13.9625Z" fill="#F3AB7D"/>
<path d="M45.5875 11.7125L44.6875 10.8375C46.4125 9.06251 48.775 9.60001 49.7875 10.125L49.2125 11.2375C49.125 11.1875 47.075 10.1625 45.5875 11.7125Z" fill="#B24E10"/>
<path d="M38.425 12.6375L37.5 11.8C39.3125 9.79999 42.1 11.05 42.225 11.1L41.7 12.2375C41.625 12.2 39.625 11.325 38.425 12.6375Z" fill="#B24E10"/>
<path d="M44.5125 20.3C43.9 20.3 43.2375 20.15 42.5625 19.7625L43.1875 18.675C44.9 19.6625 46.2625 18.4 46.325 18.35L47.1875 19.25C46.7125 19.7 45.7125 20.3 44.5125 20.3Z" fill="#E96B4E"/>
<path d="M24.325 14.1625C23.4 13.175 22.4625 13.7625 22.2875 13.8875L21.55 12.8875C22.225 12.3875 23.85 11.8375 25.2375 13.3125L24.325 14.1625Z" fill="#B24E10"/>
<path d="M46.55 14.25L45.6 13.4375C46.8 12.0125 48.225 12.35 48.975 12.7625L49.1875 12.6625L49.7125 13.8L49.1875 14.0375C48.975 14.1375 48.7125 14.1 48.525 13.95C48.35 13.825 47.4375 13.1875 46.55 14.25Z" fill="#B24E10"/>
<path d="M39.1625 15.4875C39.0875 15.4875 39.0125 15.475 38.95 15.45L38.275 15.2L38.7125 14.025L39.0125 14.1375C40.2625 13 41.7375 13.4625 42.3875 13.9125L41.675 14.9375L42.025 14.425L41.675 14.9375C41.4875 14.8125 40.5125 14.2375 39.65 15.2625C39.5125 15.4125 39.3375 15.4875 39.1625 15.4875Z" fill="#B24E10"/>
<path d="M34.175 48.625L33.9875 51.1375C35.6 53.0125 39.45 54.7125 40.0625 56.55C40.6625 58.3875 40.875 63.375 40.875 63.375H22.4625C22.4625 63.375 22.4625 58.2125 23.1375 56.375C23.8125 54.5375 27.8 53.9375 30.0125 51.1375L29.825 48.625H34.175Z" fill="#DB3429"/>
<path d="M35.6 52.5625C35.5 52.7125 34.3375 54.4375 31.975 54.4375C29.625 54.4375 28.725 52.6375 28.65 52.475C29.1375 52.0875 29.6 51.65 30.0125 51.1375L29.825 48.625H34.1875L34 51.1375C34.4125 51.625 34.975 52.1 35.6 52.5625Z" fill="#F3AB7D"/>
<path d="M31.975 55.0625C29.1375 55.0625 28.1125 52.8125 28.075 52.7125L29.2125 52.2125L28.6375 52.4625L29.2125 52.2C29.2375 52.2625 29.975 53.8125 31.975 53.8125C34.0375 53.8125 35.0375 52.2875 35.075 52.225L36.1375 52.8875C36.0875 52.975 34.75 55.0625 31.975 55.0625Z" fill="#F5F4EF"/>
<path d="M24.9625 56.95L27.5 55.6875L28.3 52.725C28.3 52.725 27.65 50.975 26.9625 51.0375C26.275 51.1 24.125 52.1375 23.9375 53.7625C23.75 55.375 24.9625 56.95 24.9625 56.95Z" fill="#F7C9AB"/>
<path d="M59 30.6375C61.95 33.2125 55.2875 50.425 55.2875 50.425L40.875 53.7875C40.875 53.7875 39.925 54.525 39.2125 55.3125C38.5 56.0875 37.4125 56.95 37.4125 56.95L35.6125 55.4375C35.6125 55.4375 35.0375 52.0875 36.175 50.9125C36.625 50.4375 40.0625 50.4375 40.0625 50.4375L51.55 45.5375C51.55 45.5375 52.55 35.7875 53.3 33.2C54.0375 30.625 56.625 28.575 59 30.6375Z" fill="#F7C9AB"/>
<path d="M18.1125 31.2L16.8375 33.025L17.375 53.7875L13.5875 58.4625L11.675 54L15.5 32.8125L15 31.0875L17.125 29.35L18.1125 31.2Z" fill="#DB3429"/>
<path d="M15.5 32.8125L16.8375 33.025L16.8875 35.1125L15.1125 34.95L15.5 32.8125Z" fill="#B3271E"/>
<path d="M39.2 42.525H40.625C41.675 42.525 42.525 41.675 42.525 40.625C42.525 39.575 41.675 38.725 40.625 38.725H40.05L39.2 42.525Z" fill="#F3AB7D"/>
<path d="M24.7875 42.525H23.375C22.325 42.525 21.475 41.675 21.475 40.625C21.475 39.575 22.325 38.725 23.375 38.725H23.95L24.7875 42.525Z" fill="#F3AB7D"/>
<path d="M40.0625 38.7375C40.0625 38.7375 39.775 43.8 38.025 46.0125C36.2375 48.25 32 49.3625 32 49.3625C32 49.3625 27.7625 48.25 25.975 46.0125C24.225 43.8125 23.9375 38.7375 23.9375 38.7375C23.9375 38.7375 25.8625 35.375 26.2125 33.125C26.2125 33.125 28.5 31.8125 32 31.8125C35.5 31.8125 38 33.375 38 33.375C38 33.375 38.1625 38.1875 40.0625 38.7375Z" fill="#F7C9AB"/>
<path d="M32 45.125C30.4125 45.125 29.4875 43.9375 29.3125 43.7L30.325 42.95C30.3875 43.0375 31.0125 43.8375 32.025 43.825C33.0125 43.8125 33.6125 43.025 33.675 42.9375L34.6875 43.7C34.525 43.925 33.6 45 32.0375 45.125H32Z" fill="#E36414"/>
<path d="M26.5375 37.6625L25.9 36.5625C26.4125 36.2625 27.2375 35.875 28.3 35.875H28.325C29.375 35.875 30.2 36.2625 30.7 36.5625L30.0625 37.65C29.7 37.4375 29.0875 37.175 28.3125 37.175C27.525 37.1625 26.9125 37.4375 26.5375 37.6625Z" fill="#B24E10"/>
<path d="M37.4625 37.6375C37.0875 37.4125 36.475 37.125 35.7 37.125H35.675C34.9 37.125 34.3 37.4125 33.925 37.6375L33.2875 36.55C33.7875 36.25 34.6125 35.875 35.6625 35.875H35.6875C36.75 35.875 37.5875 36.25 38.0875 36.55L37.4625 37.6375Z" fill="#B24E10"/>
<path d="M29.8 39.875C29.7 39.8375 29.6 39.7875 29.475 39.725C29.1875 39.575 28.8 39.3625 28.3125 39.3625C27.85 39.3625 27.375 39.525 26.9625 39.8125L26.2375 38.7875C26.8625 38.35 27.575 38.1125 28.3 38.1C29.1125 38.1 29.7375 38.425 30.0625 38.6C30.1125 38.625 30.2 38.675 30.225 38.6875L29.8 39.875Z" fill="#B24E10"/>
<path d="M34.2 39.875L33.775 38.7C33.8 38.6875 33.875 38.6625 33.9375 38.625C34.2625 38.45 34.875 38.125 35.6875 38.125H35.7125C36.4375 38.125 37.15 38.3625 37.775 38.8L37.05 39.825C36.625 39.525 36.1625 39.375 35.7 39.375H35.6875C35.2 39.375 34.8125 39.575 34.5375 39.725C34.4125 39.7875 34.3125 39.8375 34.2 39.875Z" fill="#B24E10"/>
<path d="M20.4625 23.9625C20.4375 23.9625 20.4125 23.9625 20.4 23.9625L16.7875 23.5625C16.675 23.55 16.575 23.5125 16.475 23.4375L12 20.1C11.8625 20 11.7625 19.8375 11.75 19.65L11.425 16.075C10.025 16.125 8.9 15.275 8.25 13.625C7.75 12.375 7.96251 11.5625 8.22501 11.1125C8.45001 10.7375 8.9125 10.2625 9.8375 10.1375C11.1375 9.975 11.9625 10.8875 12.2375 11.45C12.275 11.525 12.3 11.6 12.3 11.675L12.9875 19.25L17.1 22.325L20.3875 22.6875L24.7125 20.9875L27.55 13.175C27.575 13.1 27.625 13.025 27.6875 12.9625C27.725 12.925 28.675 11.95 30.175 12.2375C30.7125 12.3375 31.125 12.6625 31.35 13.1375C31.775 14.0625 31.375 15.3625 30.9 16.1875C30.175 17.4625 28.65 18.125 27.175 17.8875L25.8 21.6875C25.7375 21.85 25.6125 21.9875 25.4375 22.05L20.7 23.9125C20.625 23.95 20.55 23.9625 20.4625 23.9625ZM27.6 16.6875C28.4875 16.7375 29.375 16.3125 29.8 15.575C30.2 14.875 30.375 14.05 30.2 13.675C30.1625 13.575 30.1 13.5125 29.925 13.475C29.2875 13.35 28.8375 13.625 28.6625 13.7625L27.6 16.6875ZM10.125 11.375C10.075 11.375 10.0375 11.375 9.9875 11.3875C9.65 11.425 9.425 11.55 9.3 11.75C9.12501 12.05 9.1625 12.5625 9.4 13.1625C9.9625 14.5625 10.7625 14.825 11.325 14.8375L11.0625 11.9375C10.95 11.7625 10.6375 11.375 10.125 11.375Z" fill="#57130F"/>
<path d="M28.05 14.025C26.1125 14.025 25.05 11.75 24.0375 9.55C23.3125 7.9875 22.4875 6.2125 21.5625 5.9875C21.1875 5.9 20.7375 6.075 20.2 6.5125C19.9375 6.725 19.55 6.6875 19.3375 6.4375C19.075 6.1375 18.7 5.7875 18.375 5.8125C17.725 5.8625 16.925 7.1875 16.225 8.3625C15.075 10.2375 13.7875 12.375 11.7375 12.375C11.7125 12.375 11.6875 12.375 11.6625 12.375L11.6875 11.125C11.7 11.125 11.7125 11.125 11.725 11.125C13.075 11.125 14.175 9.3125 15.1375 7.7125C16.0875 6.15 16.975 4.675 18.25 4.5625C18.8 4.5125 19.3375 4.725 19.8625 5.2C20.5375 4.7625 21.2 4.625 21.8375 4.7625C23.3625 5.1125 24.2375 7.0125 25.1625 9.0125C26.025 10.8875 26.925 12.8125 28.1 12.7625L28.15 14.0125C28.125 14.025 28.0875 14.025 28.05 14.025Z" fill="#57130F"/>
<path d="M28.6625 13.7125L27.5875 13.075C27.6 13.05 29.0125 10.675 30.3375 8.1625C30.7 7.475 30.6875 6.75 30.325 5.95C29.475 4.1 26.8625 2.3375 25.05 1.9125C22.7125 1.3625 21.075 2.575 21.0625 2.5875C20.8125 2.775 20.4625 2.75 20.2375 2.525C20.1875 2.475 18.875 1.2375 16 1.2375C12.9875 1.25 10.5625 3.35 10.5 6.0375C10.45 8.2125 12.2125 11.4 12.225 11.4375L11.125 12.05C11.05 11.9125 9.18751 8.525 9.25001 6.0125C9.28751 4.35 10.0375 2.8125 11.3625 1.6875C12.625 0.6 14.2875 0 16.0125 0C18.525 0 20.0625 0.8375 20.7375 1.325C21.4875 0.9 23.175 0.1875 25.35 0.6875C27.4875 1.1875 30.4625 3.2125 31.475 5.425C32 6.575 31.9875 7.725 31.4625 8.7375C30.1125 11.2875 28.6875 13.6875 28.6625 13.7125Z" fill="#57130F"/>
<path d="M17.375 13.35C16.45 12.325 15.5625 12.9875 15.4 13.125L14.575 12.1875C15.1125 11.7125 16.825 10.8625 18.3 12.5125L17.375 13.35Z" fill="#57130F"/>
<path d="M18.2625 10.775C16.7 9.26249 14.65 10.4 14.625 10.4125L14.0125 9.32499C15.0125 8.76249 17.3625 8.16249 19.1375 9.87499L18.2625 10.775Z" fill="#57130F"/>
<path d="M25.45 11.55C23.9125 10.05 21.9 11.1375 21.8125 11.1875L21.2 10.1C22.2 9.53749 24.55 8.93749 26.325 10.65L25.45 11.55Z" fill="#57130F"/>
<path d="M19.5625 19.3875C18.1375 19.3875 16.9625 18.6875 16.4 18.15L17.2625 17.25C17.3375 17.325 19.075 18.925 21.25 17.6625L21.875 18.75C21.0625 19.2125 20.275 19.3875 19.5625 19.3875Z" fill="#57130F"/>
<path d="M45.825 24.625C42.05 24.625 38.725 22.5625 37.375 19.3625C37.375 19.35 37.3625 19.3375 37.3625 19.325L35.2875 13.6C35.2125 13.3875 35.25 13.1625 35.4 12.9875C35.5875 12.7625 35.8625 12.4 36.2125 11.95C39.7375 7.375 43.4 3.2125 46.35 3.6875C46.575 3.725 46.7625 3.875 46.8375 4.0875C47.7875 6.6625 50.45 10.35 52.05 11.025C52.4625 10.525 53.175 10.025 54.1625 10.15C54.7625 10.225 55.25 10.55 55.5625 11.075C56.025 11.875 56.0375 13.0375 55.5625 14.2C54.8875 15.875 53.875 16.2125 52.525 16.3L52.3875 17.7625C52.1875 20.2 47.9375 24.625 45.825 24.625ZM38.525 18.8875C39.6875 21.6125 42.55 23.375 45.825 23.375C46.3375 23.375 47.5625 22.65 48.9125 21.25C50.2 19.9125 51.0875 18.5 51.1625 17.6375L51.6625 12.2C49.475 11.325 46.8375 7.3375 45.825 4.9C43.1625 4.9875 38.8625 10.55 37.2125 12.7125C36.975 13.025 36.7625 13.3 36.5875 13.5125L38.525 18.8875ZM52.9375 11.9375L52.6625 15.025C53.675 14.9375 54.05 14.6625 54.425 13.725C54.7375 12.95 54.7625 12.15 54.5 11.7C54.3875 11.5125 54.2375 11.4125 54.025 11.3875C53.4125 11.3125 53.0625 11.75 52.9375 11.9375Z" fill="#57130F"/>
<path d="M44.5125 20.3C43.9 20.3 43.2375 20.15 42.5625 19.7625L43.1875 18.675C44.9 19.6625 46.2625 18.4 46.325 18.35L47.1875 19.25C46.7125 19.7 45.7125 20.3 44.5125 20.3Z" fill="#57130F"/>
<path d="M61.1625 37.3125L60.3375 36.375C60.3625 36.35 62.7625 34.1 62.7625 28.4375C62.7625 25.175 61.175 22.0125 59.6375 18.95C58.4 16.4875 57.225 14.15 56.9375 11.875C56.2875 6.925 54.3375 1.25 44.825 1.25C35.4 1.25 34.3875 9.75 34.3875 13.4C34.3875 16.2625 35 19.1625 35.5375 21.7375C35.6375 22.2125 35.7375 22.675 35.825 23.125L34.6 23.375C34.5125 22.9375 34.4125 22.475 34.3125 22C33.7625 19.375 33.1375 16.4 33.1375 13.4125C33.1375 11.55 33.4125 7.9875 35.2375 4.975C37.225 1.675 40.45 0 44.8125 0C49.5 0 53 1.35 55.225 4.0125C57.275 6.4625 57.8875 9.575 58.1625 11.7125C58.4375 13.775 59.55 16.0125 60.7375 18.3875C62.3375 21.575 64 24.8875 64 28.4375C64 34.7125 61.275 37.2 61.1625 37.3125Z" fill="#57130F"/>
<path d="M24.325 14.1625C23.4 13.175 22.4625 13.7625 22.2875 13.8875L21.55 12.8875C22.225 12.3875 23.85 11.8375 25.2375 13.3125L24.325 14.1625Z" fill="#57130F"/>
<path d="M46.55 14.25L45.6 13.4375C46.8 12.0125 48.225 12.35 48.975 12.7625L49.1875 12.6625L49.7125 13.8L49.1875 14.0375C48.975 14.1375 48.7125 14.1 48.525 13.95C48.35 13.825 47.4375 13.1875 46.55 14.25Z" fill="#57130F"/>
<path d="M39.1625 15.4875C39.0875 15.4875 39.0125 15.475 38.95 15.45L38.275 15.2L38.7125 14.025L39.0125 14.1375C40.2625 13 41.7375 13.4625 42.3875 13.9125L41.675 14.9375L42.025 14.425L41.675 14.9375C41.4875 14.8125 40.5125 14.2375 39.65 15.2625C39.5125 15.4125 39.3375 15.4875 39.1625 15.4875Z" fill="#57130F"/>
<path d="M40.625 43.15H39.2V41.9H40.625C41.325 41.9 41.9 41.325 41.9 40.625C41.9 39.925 41.325 39.35 40.625 39.35H40.05V38.1H40.625C42.0125 38.1 43.15 39.225 43.15 40.625C43.15 42.025 42.025 43.15 40.625 43.15Z" fill="#57130F"/>
<path d="M24.7875 43.15H23.375C21.9875 43.15 20.85 42.025 20.85 40.625C20.85 39.225 21.975 38.1 23.375 38.1H23.95V39.35H23.375C22.675 39.35 22.1 39.925 22.1 40.625C22.1 41.325 22.675 41.9 23.375 41.9H24.8V43.15H24.7875Z" fill="#57130F"/>
<path d="M32 45.125C30.4125 45.125 29.4875 43.9375 29.3125 43.7L30.325 42.95C30.3875 43.0375 31.0125 43.8375 32.025 43.825C33.0125 43.8125 33.6125 43.025 33.675 42.9375L34.6875 43.7C34.525 43.925 33.6 45 32.0375 45.125C32.025 45.125 32.0125 45.125 32 45.125Z" fill="#57130F"/>
<path d="M26.5375 37.6625L25.9 36.5625C26.4125 36.2625 27.2375 35.875 28.3 35.875C28.3125 35.875 28.325 35.875 28.325 35.875C29.375 35.875 30.2 36.2625 30.7 36.5625L30.0625 37.65C29.6875 37.4375 29.0875 37.175 28.3125 37.175C27.525 37.1625 26.9125 37.4375 26.5375 37.6625Z" fill="#57130F"/>
<path d="M37.4625 37.6375C37.0875 37.4125 36.475 37.125 35.7 37.125C35.6875 37.125 35.6875 37.125 35.675 37.125C34.9 37.125 34.3 37.4125 33.925 37.6375L33.2875 36.55C33.7875 36.25 34.6125 35.875 35.6625 35.875C35.675 35.875 35.6875 35.875 35.6875 35.875C36.75 35.875 37.5875 36.25 38.0875 36.55L37.4625 37.6375Z" fill="#57130F"/>
<path d="M29.8 39.875C29.7 39.8375 29.6 39.7875 29.475 39.725C29.1875 39.575 28.8 39.3625 28.3125 39.3625C27.85 39.3625 27.375 39.525 26.9625 39.8125L26.2375 38.7875C26.8625 38.35 27.575 38.1125 28.3 38.1C29.1125 38.1 29.7375 38.425 30.0625 38.6C30.1125 38.625 30.2 38.675 30.225 38.6875L29.8 39.875Z" fill="#57130F"/>
<path d="M34.2 39.875L33.775 38.7C33.8 38.6875 33.875 38.6625 33.9375 38.625C34.2625 38.45 34.875 38.125 35.6875 38.125C35.7 38.125 35.7 38.125 35.7125 38.125C36.4375 38.125 37.15 38.3625 37.775 38.8L37.05 39.825C36.625 39.525 36.1625 39.375 35.7 39.375H35.6875C35.2 39.375 34.8125 39.575 34.5375 39.725C34.4125 39.7875 34.3125 39.8375 34.2 39.875Z" fill="#57130F"/>
<path d="M32 49.9875C31.95 49.9875 31.9 49.975 31.8375 49.9625C31.65 49.9125 27.375 48.775 25.4875 46.4C23.6375 44.0625 23.325 38.9875 23.3125 38.775C23.3 38.65 23.3375 38.5375 23.4 38.425C23.4125 38.3875 25.275 35.1375 25.6 33.025C25.625 32.8375 25.7375 32.675 25.9125 32.575C26.0125 32.5125 28.3875 31.175 32.0125 31.175C35.65 31.175 38.2375 32.7625 38.3375 32.8375C38.5125 32.95 38.625 33.1375 38.625 33.35C38.6875 35.1625 39.225 37.8375 40.2375 38.125C40.5125 38.2 40.7 38.475 40.6875 38.7625C40.675 38.975 40.3625 44.05 38.5125 46.3875C36.625 48.7625 32.3375 49.9125 32.1625 49.95C32.1 49.975 32.05 49.9875 32 49.9875ZM24.575 38.875C24.65 39.775 25.0375 43.8125 26.4625 45.6125C27.9125 47.4375 31.2375 48.4875 32 48.7C32.7625 48.475 36.0875 47.425 37.5375 45.6125C38.8625 43.9375 39.3 40.35 39.4 39.1125C38.625 38.6375 38.05 37.5875 37.7 35.975C37.5 35.075 37.425 34.2125 37.3875 33.75C36.675 33.375 34.6125 32.4375 31.9875 32.4375C29.3375 32.4375 27.425 33.225 26.7625 33.5375C26.3625 35.575 24.9625 38.1875 24.575 38.875Z" fill="#57130F"/>
<path d="M41.75 38.85L40.5 38.75L41 32.7C41.0125 32.6 41.0375 32.5 41.1 32.4125C41.5375 31.7125 41.9 30.8625 41.8625 30.5875C41.675 30.35 40.6875 29.9125 39.7375 29.65C39.5625 29.6 39.4125 29.475 39.3375 29.3C39.2625 29.125 39.2625 28.9375 39.35 28.7625C39.775 27.925 39.9625 26.9125 39.725 26.7625C39.45 26.575 38.275 27.15 37.35 27.9125C37.2125 28.025 37.0375 28.075 36.8625 28.05C36.6875 28.025 36.5375 27.925 36.4375 27.775C35.7375 26.7375 34.85 25.725 34.45 25.525C34.1125 25.875 33.6375 26.925 33.3625 27.8C33.3125 27.975 33.1875 28.1125 33.025 28.1875C32.8625 28.2625 32.675 28.2625 32.5125 28.1875C30.2625 27.1875 27.975 26.4625 27.2375 26.5125C27.2875 27.725 27.8125 28.6875 27.8125 28.7C27.925 28.9125 27.9125 29.1625 27.775 29.3625C27.6375 29.5625 27.4 29.65 27.1625 29.6125C24.9125 29.25 22.5625 29.225 22.1125 29.55C22.1375 30.5 22.875 31.7875 23.15 32.2C23.2125 32.3 23.25 32.4125 23.2625 32.525L23.5125 38.7625L22.2625 38.8125L22.025 32.7375C21.725 32.2625 20.8625 30.775 20.8625 29.475C20.8625 29.1375 21.0125 28.8375 21.275 28.6125C22.1625 27.8625 24.6875 28.0125 26.2875 28.2125C26.125 27.6875 25.9875 27.025 25.9875 26.3C25.9875 25.9625 26.15 25.65 26.4375 25.475C26.8625 25.2 27.6625 25.0375 30.35 25.9875C31.15 26.2625 31.9 26.575 32.4125 26.775C32.7 26 33.225 24.8375 33.8625 24.4C34.7875 23.7875 35.9125 25.0875 36.3375 25.575C36.625 25.9125 36.8875 26.25 37.1 26.525C37.975 25.9 39.4625 25.0625 40.4375 25.7125C41.4125 26.3625 41.1 27.775 40.775 28.6375C41.7125 28.95 42.8125 29.4625 43.0625 30.1375C43.35 30.95 42.6625 32.275 42.2625 32.925L41.75 38.85Z" fill="#57130F"/>
<path d="M35.1625 53C34.425 52.4375 33.9 51.975 33.525 51.525C33.4125 51.4 33.3625 51.2375 33.375 51.075L33.5625 48.5375L34.8125 48.625L34.6375 50.8875C34.95 51.2125 35.3625 51.575 35.9125 51.9875L35.1625 53Z" fill="#57130F"/>
<path d="M40.875 64H22.4625C22.3 64 22.1375 63.9375 22.025 63.8125C21.9125 63.7 21.8375 63.5375 21.8375 63.375C21.8375 63.1625 21.85 58.075 22.55 56.1625C22.7375 55.6375 23.1125 55.1875 23.725 54.7375L24.475 55.7375C24.075 56.0375 23.825 56.3125 23.725 56.6C23.2625 57.85 23.125 61.0375 23.0875 62.7625H40.2125C40.1375 61.3625 39.9 58.1 39.4625 56.75C39.3625 56.4625 39.125 56.125 38.75 55.75L39.625 54.8625C40.15 55.3875 40.4875 55.875 40.65 56.3625C41.275 58.25 41.4875 63.1625 41.5 63.3625C41.5125 63.5375 41.45 63.7 41.325 63.825C41.2125 63.925 41.05 64 40.875 64Z" fill="#57130F"/>
<path d="M28.6625 53.2375L27.9375 52.225C28.5125 51.8125 28.9875 51.3875 29.375 50.925L29.2 48.6375L30.45 48.55L30.6375 51.0875C30.65 51.25 30.6 51.4 30.5 51.525C30.0125 52.1375 29.4125 52.7 28.6625 53.2375Z" fill="#57130F"/>
<path d="M31.975 55.0625C29.1375 55.0625 28.1125 52.8125 28.075 52.7125L29.2125 52.2125L28.6375 52.4625L29.2125 52.2C29.2375 52.2625 29.975 53.8125 31.975 53.8125C34.0375 53.8125 35.0375 52.2875 35.075 52.225L36.1375 52.8875C36.0875 52.975 34.75 55.0625 31.975 55.0625Z" fill="#57130F"/>
<path d="M40.9 29.9625L40.6625 28.7375C41.7625 28.525 42.75 27.8125 43.175 26.9125L42.7375 23.7625L43.975 23.5875L44.4375 26.9125C44.45 27.025 44.4375 27.125 44.4 27.2375C43.8625 28.5875 42.4875 29.6625 40.9 29.9625Z" fill="#57130F"/>
<path d="M60.775 64H40.875V62.75H59.7875C59.05 61.0125 57.7 57.05 58.375 52.65C58.475 52 58.6 51.25 58.7375 50.4625C59.75 44.475 61.425 34.4625 58.525 31.0375C57.425 29.75 56.15 29.525 54.5375 29.225C52.8125 28.9125 50.85 28.5625 48.8 26.7625C48.6875 26.6625 48.6125 26.5125 48.5875 26.3625L48.1375 22.3125L49.375 22.175L49.7875 25.975C51.5125 27.4 53.15 27.7 54.75 27.9875C56.4625 28.3 58.0875 28.5875 59.4625 30.2125C62.75 34.075 61.075 44.05 59.9625 50.65C59.825 51.4375 59.7 52.175 59.6 52.825C58.7625 58.1625 61.275 63.0125 61.3 63.0625C61.4 63.25 61.4 63.4875 61.2875 63.675C61.1875 63.8875 60.9875 64 60.775 64Z" fill="#57130F"/>
<path d="M4.21251 58.9375L2.71251 56.3375C2.60001 56.1375 2.60001 55.8875 2.72501 55.7L3.90001 53.8125L5.65001 36.525L6.88751 36.65L5.13751 54.075C5.12501 54.175 5.10001 54.2625 5.05001 54.3375L3.98751 56.025L5.30001 58.3L4.21251 58.9375Z" fill="#57130F"/>
<path d="M20 62.75H4.75V64H20V62.75Z" fill="#57130F"/>
<path d="M24.975 57.575C24.7875 57.575 24.6 57.4875 24.475 57.3375C24.425 57.2625 23.1 55.55 23.325 53.6875C23.55 51.725 25.95 50.5125 26.9125 50.4125C27.9625 50.3125 28.65 51.85 28.8875 52.5125C28.9375 52.6375 28.9375 52.7625 28.9 52.8875L28.1 55.85C28.05 56.025 27.9375 56.1625 27.775 56.25L25.25 57.5C25.1625 57.55 25.0625 57.575 24.975 57.575ZM26.975 51.6625C26.425 51.7625 24.7 52.6125 24.5625 53.825C24.4625 54.7125 24.8875 55.625 25.1875 56.1375L26.975 55.25L27.65 52.75C27.4375 52.2625 27.1375 51.775 26.975 51.6625Z" fill="#57130F"/>
<path d="M37.4 57.575C37.2625 57.575 37.1125 57.525 37 57.425L35.2 55.9125C35.0875 55.8125 35.0125 55.6875 34.9875 55.5375C34.925 55.1625 34.4 51.8375 35.7125 50.475C36.125 50.05 37.55 49.8125 39.925 49.8L50.95 45.1C51.1375 43.275 52 35.375 52.6875 33.025C53.2125 31.2 54.5125 29.7375 56 29.3C56.825 29.0625 58.0875 29.0125 59.4 30.1625C60.25 30.9 60.5375 32.4375 60.275 34.875C60.0875 36.6625 59.6 38.9375 58.8375 41.6625C57.55 46.2625 55.875 50.6125 55.85 50.65C55.775 50.8375 55.6125 50.9875 55.4125 51.0375L41.1375 54.35C40.875 54.5625 40.1875 55.1375 39.65 55.7125C38.9125 56.525 37.825 57.3875 37.775 57.425C37.675 57.525 37.5375 57.575 37.4 57.575ZM36.1875 55.1125L37.4125 56.1375C37.775 55.825 38.3375 55.3375 38.75 54.8875C39.4875 54.075 40.45 53.325 40.5 53.2875C40.575 53.2375 40.65 53.1875 40.7375 53.175L54.825 49.9C55.225 48.8375 56.575 45.175 57.65 41.325C59.8875 33.325 59.05 31.5125 58.5875 31.1125C57.8625 30.4875 57.1125 30.2875 56.35 30.5125C55.2875 30.825 54.2875 31.9875 53.8875 33.3875C53.1625 35.8875 52.175 45.5125 52.1625 45.6125C52.1375 45.8375 52 46.0375 51.7875 46.125L40.3 51.025C40.225 51.0625 40.1375 51.075 40.0625 51.075C38.675 51.075 36.9625 51.2125 36.5875 51.3875C36 52.05 36.025 53.925 36.1875 55.1125Z" fill="#57130F"/>
<path d="M45.575 39.65C45.425 39.65 45.275 39.5875 45.15 39.4875C45.0125 39.3625 41.875 36.45 41.0125 32.9L42.225 32.6C42.775 34.825 44.3875 36.8375 45.3125 37.8625C47.0375 33.3 50.9625 27.725 51.1375 27.4625L52.1625 28.1875C52.1125 28.25 47.5875 34.6875 46.175 39.2125C46.1125 39.4125 45.95 39.575 45.7375 39.625C45.6875 39.6375 45.6375 39.65 45.575 39.65Z" fill="#57130F"/>
<path d="M22.8375 29.1L21.075 26.8875C20.9625 26.75 20.9125 26.575 20.95 26.4L21.55 22.575L22.7875 22.7625L22.2375 26.325L23.8375 28.3125L22.8375 29.1Z" fill="#57130F"/>
<path d="M4.75 64H0.625C0.4625 64 0.3 63.9375 0.175 63.8125C0.0625 63.7 0 63.5375 0 63.375C0.0125 62.325 0.2375 37.7625 2.2 33.0125C3.7 29.3875 10.525 27.7 11.45 27.4875L14.2375 25.925L14.8625 21.7875L16.1 21.975L15.425 26.4125C15.4 26.6 15.275 26.775 15.1125 26.8625L11.9875 28.6125C11.9375 28.6375 11.875 28.6625 11.8125 28.675C11.7375 28.6875 4.6875 30.275 3.3625 33.4875C1.65 37.6 1.3125 58.8 1.2625 62.75H4.125V58.625C4.125 58.275 4.4 58 4.75 58H22.625V59.25H5.375V63.375C5.375 63.725 5.1 64 4.75 64Z" fill="#57130F"/>
<path d="M18.8125 33.125C18.7625 33.125 18.7125 33.1125 18.6625 33.1C18.4875 33.0625 18.35 32.9375 18.2625 32.7875L16.9375 30.3L14.525 32.2875C14.3875 32.4 14.2125 32.45 14.0375 32.425C13.8625 32.4 13.7 32.3 13.6125 32.15L11.1625 28.4C11.0625 28.25 11.0375 28.075 11.075 27.9125C11.1125 27.75 11.225 27.6 11.375 27.5125L14.5 25.7625C14.775 25.6125 15.1125 25.675 15.3 25.925L17.275 28.5L21.225 25.9625C21.4875 25.7875 21.85 25.85 22.05 26.1L23.85 28.3125L22.875 29.1L21.4375 27.325L17.9625 29.5625L19.0625 31.6125L21.3625 30.125L22.0375 31.175L19.1625 33.0375C19.05 33.0875 18.9375 33.125 18.8125 33.125ZM12.5625 28.2875L14.2625 30.8875L16.2625 29.25L14.6375 27.125L12.5625 28.2875Z" fill="#57130F"/>
<path d="M13.5875 59.0875C13.5625 59.0875 13.525 59.0875 13.5 59.0875C13.2875 59.0625 13.1 58.9125 13.0125 58.7125L11.1 54.25C11.05 54.1375 11.0375 54.0125 11.0625 53.8875L14.8625 32.85L14.4125 31.2625L15.6125 30.9125L16.1125 32.6375C16.1375 32.725 16.15 32.825 16.125 32.925L12.3375 53.925L13.7625 57.2625L16.75 53.575L16.2125 33.05C16.2125 32.9125 16.25 32.7875 16.325 32.675L17.6 30.8375L18.625 31.55L17.4625 33.2125L18 53.7625C18 53.9125 17.95 54.0625 17.8625 54.175L14.075 58.85C13.95 59 13.775 59.0875 13.5875 59.0875Z" fill="#57130F"/>
<path d="M38.7398 50.4457L38.3044 46.3185L37.0613 46.4496L37.4967 50.5768L38.7398 50.4457Z" fill="#57130F"/>
<path d="M45.5875 11.7125L44.6875 10.8375C46.4125 9.06251 48.775 9.60001 49.7875 10.125L49.2125 11.2375C49.125 11.1875 47.075 10.1625 45.5875 11.7125Z" fill="#57130F"/>
<path d="M38.425 12.6375L37.5 11.8C39.3125 9.79999 42.1 11.05 42.225 11.1L41.7 12.2375C41.625 12.2 39.625 11.325 38.425 12.6375Z" fill="#57130F"/>
</g>
<defs>
<clipPath id="clip0_3_345">
<rect width="64" height="64" fill="white"/>
</clipPath>
</defs>
</svg>
