<svg width="64" height="64" viewBox="0 0 64 64" fill="none" xmlns="http://www.w3.org/2000/svg">
<path d="M47.875 15.25H16.125V51.125H47.875V15.25Z" fill="#463929"/>
<path d="M32 34.75C40.7675 34.75 47.875 27.6425 47.875 18.875C47.875 10.1075 40.7675 3 32 3C23.2325 3 16.125 10.1075 16.125 18.875C16.125 27.6425 23.2325 34.75 32 34.75Z" fill="#463929"/>
<path d="M17.5 57.625C21.6421 57.625 25 54.2671 25 50.125C25 45.9829 21.6421 42.625 17.5 42.625C13.3579 42.625 10 45.9829 10 50.125C10 54.2671 13.3579 57.625 17.5 57.625Z" fill="#887F11"/>
<path d="M18.5 50.125H10V64H18.5V50.125Z" fill="#887F11"/>
<path d="M46.625 57.625C50.7671 57.625 54.125 54.2671 54.125 50.125C54.125 45.9829 50.7671 42.625 46.625 42.625C42.4829 42.625 39.125 45.9829 39.125 50.125C39.125 54.2671 42.4829 57.625 46.625 57.625Z" fill="#887F11"/>
<path d="M54.125 50.125H45.375V64H54.125V50.125Z" fill="#887F11"/>
<path d="M46.625 42.625H17.5V64H46.625V42.625Z" fill="#887F11"/>
<path d="M35.375 34C35.375 32.136 33.864 30.625 32 30.625C30.136 30.625 28.625 32.136 28.625 34V45.625C28.625 47.489 30.136 49 32 49C33.864 49 35.375 47.489 35.375 45.625V34Z" fill="#F4AB90"/>
<path d="M21.625 22.5625C21.625 21.4234 20.7016 20.5 19.5625 20.5C18.4234 20.5 17.5 21.4234 17.5 22.5625V27.9375C17.5 29.0766 18.4234 30 19.5625 30C20.7016 30 21.625 29.0766 21.625 27.9375V22.5625Z" fill="#F4AB90"/>
<path d="M46.625 22.8125C46.625 21.6734 45.7016 20.75 44.5625 20.75C43.4234 20.75 42.5 21.6734 42.5 22.8125V28.1875C42.5 29.3266 43.4234 30.25 44.5625 30.25C45.7016 30.25 46.625 29.3266 46.625 28.1875V22.8125Z" fill="#F4AB90"/>
<path d="M44.5 20.125C44.5 13.2214 38.9036 7.625 32 7.625C25.0964 7.625 19.5 13.2214 19.5 20.125V27.375C19.5 34.2786 25.0964 39.875 32 39.875C38.9036 39.875 44.5 34.2786 44.5 27.375V20.125Z" fill="#FFC8B4"/>
<path d="M34.125 20.9375C34.125 19.7984 33.2016 18.875 32.0625 18.875C30.9234 18.875 30 19.7984 30 20.9375V28.1875C30 29.3266 30.9234 30.25 32.0625 30.25C33.2016 30.25 34.125 29.3266 34.125 28.1875V20.9375Z" fill="#F4AB90"/>
<path d="M32 32.3584C34.1562 32.3584 36.375 32.0484 36.375 33.1875C36.375 34.3266 34.3818 36.058 32 36.058C29.6182 36.058 27.75 34.3266 27.75 33.1875C27.75 32.0484 29.8438 32.3584 32 32.3584Z" fill="white"/>
<path d="M25.4826 23.5903C26.7847 23.5903 27.8403 22.5347 27.8403 21.2326C27.8403 19.9305 26.7847 18.875 25.4826 18.875C24.1805 18.875 23.125 19.9305 23.125 21.2326C23.125 22.5347 24.1805 23.5903 25.4826 23.5903Z" fill="#B2745D"/>
<path d="M25.4826 19.6294C25.9041 19.6294 25.6826 20.3706 26.0116 20.6775C26.2841 20.9292 27.0858 20.7685 27.0858 21.2325C27.0858 21.5496 26.9917 21.8595 26.8156 22.1231C26.6394 22.3868 26.389 22.5922 26.0961 22.7136C25.8032 22.8349 25.4808 22.8667 25.1699 22.8048C24.8589 22.743 24.5732 22.5903 24.349 22.3661C24.1248 22.1419 23.9722 21.8562 23.9103 21.5452C23.8484 21.2343 23.8802 20.9119 24.0015 20.619C24.1229 20.3261 24.3283 20.0757 24.592 19.8995C24.8556 19.7234 25.1656 19.6294 25.4826 19.6294V19.6294Z" fill="#553326"/>
<path d="M38.5814 18.875C39.0477 18.875 39.5035 19.0133 39.8912 19.2723C40.2789 19.5314 40.5811 19.8996 40.7595 20.3304C40.938 20.7612 40.9847 21.2352 40.8937 21.6926C40.8027 22.1499 40.5782 22.57 40.2485 22.8997C39.9188 23.2294 39.4987 23.454 39.0413 23.5449C38.584 23.6359 38.11 23.5892 37.6792 23.4108C37.2484 23.2323 36.8801 22.9302 36.6211 22.5425C36.362 22.1547 36.2238 21.6989 36.2238 21.2326C36.2238 20.6073 36.4721 20.0077 36.9143 19.5655C37.3564 19.1234 37.9561 18.875 38.5814 18.875V18.875Z" fill="#B2745D"/>
<path d="M38.5814 19.6294C39.0029 19.6294 38.7814 20.3706 39.1104 20.6775C39.3829 20.9292 40.1845 20.7685 40.1845 21.2325C40.1845 21.5496 40.0905 21.8595 39.9143 22.1231C39.7382 22.3868 39.4878 22.5922 39.1949 22.7136C38.9019 22.8349 38.5796 22.8667 38.2686 22.8048C37.9577 22.743 37.672 22.5903 37.4478 22.3661C37.2236 22.1419 37.0709 21.8562 37.0091 21.5452C36.9472 21.2343 36.979 20.9119 37.1003 20.619C37.2216 20.3261 37.4271 20.0757 37.6907 19.8995C37.9544 19.7234 38.2643 19.6294 38.5814 19.6294V19.6294Z" fill="#553326"/>
<path d="M32 0C36.2103 0 40.2482 1.67254 43.2253 4.64968C46.2025 7.62682 47.875 11.6647 47.875 15.875C47.875 24.6425 40.7675 16.516 32 16.516C23.2325 16.516 16.125 24.6425 16.125 15.875C16.125 11.6647 17.7975 7.62682 20.7747 4.64968C23.7518 1.67254 27.7897 0 32 0V0Z" fill="#463929"/>
</svg>
