<svg width="58" height="59" viewBox="0 0 58 59" fill="none" xmlns="http://www.w3.org/2000/svg">
<path d="M29 59C45.0163 59 58 55.6421 58 51.5C58 47.3579 45.0163 44 29 44C12.9837 44 0 47.3579 0 51.5C0 55.6421 12.9837 59 29 59Z" fill="#FCCD1D"/>
<path d="M29 55C40.0457 55 49 53.433 49 51.5C49 49.567 40.0457 48 29 48C17.9543 48 9 49.567 9 51.5C9 53.433 17.9543 55 29 55Z" fill="#F9A215"/>
<path d="M51 23C51.0021 19.0489 49.9401 15.1702 47.9255 11.7713C45.911 8.37241 43.0183 5.57875 39.5513 3.68381C36.0843 1.78887 32.1709 0.86258 28.2223 1.00225C24.2737 1.14192 20.4356 2.34238 17.1112 4.47755C13.7867 6.61272 11.0986 9.60378 9.32925 13.1365C7.5599 16.6693 6.77458 20.6133 7.0558 24.5544C7.33703 28.4954 8.6744 32.288 10.9275 35.5337C13.1805 38.7794 16.2661 41.3585 19.86 43L27.68 50.84C28.045 51.1606 28.5142 51.3375 29 51.3375C29.4858 51.3375 29.955 51.1606 30.32 50.84L38.14 43C41.9744 41.2487 45.2249 38.4327 47.5047 34.887C49.7846 31.3414 50.9978 27.2154 51 23Z" fill="#DD051D"/>
<path d="M29 41C38.9411 41 47 32.9411 47 23C47 13.0589 38.9411 5 29 5C19.0589 5 11 13.0589 11 23C11 32.9411 19.0589 41 29 41Z" fill="white"/>
<path d="M18 24V32H22V29H36V32H40V24H18Z" fill="#BB7A10"/>
<path d="M21 14H37C37.5304 14 38.0391 14.2107 38.4142 14.5858C38.7893 14.9609 39 15.4696 39 16V24H19V16C19 15.4696 19.2107 14.9609 19.5858 14.5858C19.9609 14.2107 20.4696 14 21 14Z" fill="#FCCD1D"/>
<path d="M23.85 19H28.16C28.3854 19 28.6016 19.0896 28.761 19.249C28.9204 19.4084 29.01 19.6246 29.01 19.85V24H23V19.85C23 19.6246 23.0896 19.4084 23.249 19.249C23.4084 19.0896 23.6246 19 23.85 19Z" fill="#E6E7E8"/>
<path d="M29.85 19H34.16C34.3854 19 34.6016 19.0896 34.761 19.249C34.9204 19.4084 35.01 19.6246 35.01 19.85V24H29V19.85C29 19.6246 29.0896 19.4084 29.249 19.249C29.4084 19.0896 29.6246 19 29.85 19Z" fill="#E6E7E8"/>
</svg>
