<svg width="64" height="64" viewBox="0 0 64 64" fill="none" xmlns="http://www.w3.org/2000/svg">
<path d="M53.3333 8H45.3333V23.9997H53.3333V8Z" fill="#C0392B"/>
<path d="M32 8.08301L8 31.9998V36.8318V51.1678V55.9998H10.6667H32H53.3333H56V51.1678V36.8318V31.9998L32 8.08301Z" fill="#BDC3C7"/>
<path d="M32 9.59991L8 33.3333V38.4V38.6666L32 14.6666L56 38.6666V38.4V33.3333L32 9.59991Z" fill="#95A5A6"/>
<path d="M32 2.66666L1.82935 32.7998L5.60135 36.5332L32 10.1331L58.3973 36.5332L62.1707 32.7998L32 2.66666Z" fill="#E74C3C"/>
<path d="M37.3334 26.6666C37.3334 28.0811 36.7715 29.4377 35.7713 30.4379C34.7711 31.4381 33.4145 32 32 32C30.5855 32 29.229 31.4381 28.2288 30.4379C27.2286 29.4377 26.6667 28.0811 26.6667 26.6666C26.6667 25.2522 27.2286 23.8956 28.2288 22.8954C29.229 21.8952 30.5855 21.3333 32 21.3333C33.4145 21.3333 34.7711 21.8952 35.7713 22.8954C36.7715 23.8956 37.3334 25.2522 37.3334 26.6666Z" fill="#3498DB"/>
<path d="M37.3334 40H26.6667V56H37.3334V40Z" fill="#E67E22"/>
<path d="M36 49.3333C36 49.687 35.8595 50.0261 35.6095 50.2761C35.3594 50.5262 35.0203 50.6667 34.6667 50.6667C34.3131 50.6667 33.9739 50.5262 33.7239 50.2761C33.4738 50.0261 33.3333 49.687 33.3333 49.3333C33.3333 48.9797 33.4738 48.6406 33.7239 48.3905C33.9739 48.1405 34.3131 48 34.6667 48C35.0203 48 35.3594 48.1405 35.6095 48.3905C35.8595 48.6406 36 48.9797 36 49.3333Z" fill="#D35400"/>
<path d="M32 21.3333C29.0534 21.3333 26.6667 23.7333 26.6667 26.6666C26.6667 26.9333 26.7227 27.4666 26.832 28C27.424 25.6 29.5147 24 32 24C34.4854 24 36.576 25.6 37.168 28C37.2774 27.4666 37.3334 26.9333 37.3334 26.6666C37.3334 23.7333 34.9467 21.3333 32 21.3333Z" fill="#2980B9"/>
<path d="M36 48C36 48.3536 35.8595 48.6928 35.6095 48.9428C35.3594 49.1928 35.0203 49.3333 34.6667 49.3333C34.3131 49.3333 33.9739 49.1928 33.7239 48.9428C33.4738 48.6928 33.3333 48.3536 33.3333 48C33.3333 47.6464 33.4738 47.3072 33.7239 47.0572C33.9739 46.8071 34.3131 46.6667 34.6667 46.6667C35.0203 46.6667 35.3594 46.8071 35.6095 47.0572C35.8595 47.3072 36 47.6464 36 48Z" fill="#F1C40F"/>
<path d="M37.3334 37.3333H26.6667V40H37.3334V37.3333Z" fill="#D35400"/>
</svg>
