<svg width="658" height="285" viewBox="0 0 658 285" fill="none" xmlns="http://www.w3.org/2000/svg">
<path opacity="0.35" d="M472.917 111.831V279.435H304.237V111.831L358.621 42.3284H418.55L472.917 111.831Z" fill="#42372D"/>
<path d="M541.007 76.5432H133.179L203.094 0H466.987L541.007 76.5432Z" fill="#9F97FF"/>
<path opacity="0.35" d="M533.719 76.5432H143.198V279.435H533.719V76.5432Z" fill="#A39582"/>
<path d="M538.711 244.968H143.198V279.418H538.711V244.968Z" fill="#A8A29D"/>
<path d="M441.504 279.418H272.824V111.831L357.164 4.0233L441.504 111.831V279.418Z" fill="#F2E5D6"/>
<path opacity="0.35" d="M357.164 4.0233L272.824 111.831V125.896L357.164 29.1689L441.504 128.393V111.831L357.164 4.0233Z" fill="#BFB2A5"/>
<path d="M441.504 181.953H272.824V188.307H441.504V181.953Z" fill="#A09A95"/>
<path d="M306.098 164.972H283.664V178.249H306.098V164.972Z" fill="#A09A95"/>
<path d="M442.979 183.496H271.333V186.949H442.979V183.496Z" fill="#FCF5F0"/>
<path d="M304.841 166.078H284.904V177.159H304.841V166.078Z" fill="#FCF5F0"/>
<path d="M303.233 167.503H286.529V175.734H303.233V167.503Z" fill="#A09A95"/>
<path d="M301.256 168.475H288.506V174.745H301.256V168.475Z" fill="#FCF5F0"/>
<path d="M344.498 164.972H322.064V178.249H344.498V164.972Z" fill="#A09A95"/>
<path d="M343.258 166.078H323.321V177.159H343.258V166.078Z" fill="#FCF5F0"/>
<path d="M341.633 167.503H324.929V175.734H341.633V167.503Z" fill="#A09A95"/>
<path d="M339.673 168.475H326.923V174.745H339.673V168.475Z" fill="#FCF5F0"/>
<path d="M379.598 164.972H357.164V178.249H379.598V164.972Z" fill="#A09A95"/>
<path d="M378.341 166.078H358.404V177.159H378.341V166.078Z" fill="#FCF5F0"/>
<path d="M376.716 167.503H360.012V175.734H376.716V167.503Z" fill="#A09A95"/>
<path d="M374.756 168.475H362.006V174.745H374.756V168.475Z" fill="#FCF5F0"/>
<path d="M417.63 164.972H395.196V178.249H417.63V164.972Z" fill="#A09A95"/>
<path d="M416.373 166.078H396.436V177.159H416.373V166.078Z" fill="#FCF5F0"/>
<path d="M414.765 167.503H398.061V175.734H414.765V167.503Z" fill="#A09A95"/>
<path d="M412.787 168.475H400.038V174.745H412.787V168.475Z" fill="#FCF5F0"/>
<path d="M462.095 125.896H448.675L357.03 17.7025L262.185 125.896H249.184L357.03 1.30757L462.095 125.896Z" fill="#42372D"/>
<path d="M455.728 125.896H448.675L357.03 17.7025L262.185 125.896H255.701L357.03 8.85124L455.728 125.896Z" fill="#FFF6EE"/>
<path opacity="0.51" d="M453.4 125.896H448.675L357.03 17.7025L262.185 125.896H258.081L357.03 11.6005L453.4 125.896Z" fill="#42372D"/>
<path opacity="0.51" d="M452.378 125.896H448.675L357.03 17.7025L262.185 125.896H259.153L357.03 12.8242L452.378 125.896Z" fill="#FFFEFD"/>
<path opacity="0.35" d="M259.22 168.056H246.671L245.163 166.749V279.435H143.198V76.5432L259.22 168.056Z" fill="#42372D"/>
<path opacity="0.35" d="M266.776 235.564H266.34V155.701H181.514V235.564H179.654C177.125 235.564 175.081 237.089 175.081 238.984V241.113H271.35V238.984C271.35 237.106 269.306 235.564 266.776 235.564Z" fill="#42372D"/>
<path d="M262.051 156.137H182.687V236.134H262.051V156.137Z" fill="#6E6E7F"/>
<path d="M199.19 168.593H262.051V156.137H182.687V236.134H199.19V168.593Z" fill="#565672"/>
<path d="M263.441 233.318V155.081H181.313V233.25H180.509C177.51 233.25 175.097 235.681 175.097 238.665H268.3C268.3 235.866 266.172 233.586 263.458 233.301L263.441 233.318ZM184.077 176.539H199.91V194.878H184.077V176.539ZM184.077 196.538H199.91V215.431H184.077V196.538ZM220.501 196.538V215.431H202.138V196.538H220.501ZM202.138 194.862V176.522H220.501V194.862H202.138ZM243.504 194.862H222.729V176.522H243.504V194.862ZM243.504 196.538V215.431H222.729V196.538H243.504ZM243.504 217.107V233.25H222.729V217.107H243.504ZM245.716 233.25V217.107H260.677V233.25H245.716ZM260.677 215.431H245.716V196.538H260.677V215.431ZM260.677 194.862H245.716V176.522H260.677V194.862ZM243.504 174.862H222.729V157.177H243.504V174.862ZM220.501 174.862H202.138V157.177H220.501V174.862ZM220.501 217.107V233.25H202.138V217.107H220.501ZM260.677 174.862H245.716V157.177H260.677V174.862ZM199.927 157.177V174.862H184.094V157.177H199.927ZM184.094 217.107H199.927V233.25H184.094V217.107Z" fill="#262816"/>
<path opacity="0.18" d="M219.328 177.209H203.043V193.94H219.328V177.209Z" fill="#BDDBDB"/>
<path opacity="0.18" d="M241.779 197.074H223.969V214.123H241.779V197.074Z" fill="#BDDBDB"/>
<path opacity="0.18" d="M242.533 158.283H223.969V174.175H242.533V158.283Z" fill="#BDDBDB"/>
<path opacity="0.18" d="M242.533 177.209H223.969V192.783H242.533V177.209Z" fill="#BDDBDB"/>
<path opacity="0.18" d="M218.575 197.493H203.043V214.66H218.575V197.493Z" fill="#BDDBDB"/>
<path opacity="0.18" d="M218.574 218.716H203.747V231.893H218.574V218.716Z" fill="#BDDBDB"/>
<path opacity="0.35" d="M526.263 236.62H525.877V156.154H449.646V236.62H447.971C445.709 236.62 443.866 238.145 443.866 240.04V242.169H530.384V240.04C530.384 238.162 528.541 236.62 526.28 236.62H526.263Z" fill="#42372D"/>
<path d="M515.674 157.193H450.149V237.19H515.674V157.193Z" fill="#6E6E7F"/>
<path d="M463.77 169.649H515.674V157.193H450.149V237.19H463.77V169.649Z" fill="#565672"/>
<path d="M516.814 234.525V156.137H448.993V234.34C446.128 234.491 443.85 236.838 443.85 239.738H520.818C520.818 237.24 519.109 235.145 516.814 234.525ZM481.362 197.594V216.487H466.2V197.594H481.362ZM466.2 195.918V177.578H481.362V195.918H466.2ZM500.361 195.918H483.205V177.578H500.361V195.918ZM500.361 197.594V216.487H483.205V197.594H500.361ZM500.361 218.163V234.307H483.205V218.163H500.361ZM502.187 234.307V218.163H514.535V234.307H502.187ZM514.535 216.487H502.187V197.594H514.535V216.487ZM514.535 195.918H502.187V177.578H514.535V195.918ZM500.361 175.919H483.205V158.233H500.361V175.919ZM481.379 175.919H466.216V158.233H481.379V175.919ZM481.379 218.163V234.307H466.216V218.163H481.379ZM451.305 197.594H464.39V216.487H451.305V197.594ZM464.39 195.918H451.305V177.578H464.39V195.918ZM451.305 218.163H464.39V234.307H451.305V218.163ZM514.552 175.919H502.204V158.233H514.552V175.919ZM464.39 158.233V175.919H451.305V158.233H464.39Z" fill="#262816"/>
<path opacity="0.18" d="M480.373 178.265H466.937V194.996H480.373V178.265Z" fill="#BDDBDB"/>
<path opacity="0.18" d="M498.937 198.13H484.227V215.179H498.937V198.13Z" fill="#BDDBDB"/>
<path opacity="0.18" d="M499.557 159.339H484.227V175.231H499.557V159.339Z" fill="#BDDBDB"/>
<path opacity="0.18" d="M499.557 178.265H484.227V193.839H499.557V178.265Z" fill="#BDDBDB"/>
<path opacity="0.18" d="M479.753 198.55H466.937V215.716H479.753V198.55Z" fill="#BDDBDB"/>
<path opacity="0.18" d="M479.753 219.772H467.523V232.949H479.753V219.772Z" fill="#BDDBDB"/>
<path opacity="0.35" d="M360.012 63.6016C331.179 63.6016 316.217 102.996 316.217 132.316V148.778H403.791V132.316C403.791 103.248 388.779 63.6016 359.996 63.6016H360.012Z" fill="#42372D"/>
<path d="M317.625 140.581V127.455C317.625 93.5584 335.736 65.9988 358.002 65.9988C380.268 65.9988 398.379 93.5751 398.379 127.455V140.581H317.641H317.625Z" fill="#6E6E7F"/>
<path d="M357.985 65.9988C335.719 65.9988 317.608 93.5751 317.608 127.455V140.581H317.976C320.59 110.523 337.529 87.2384 357.985 87.2384C378.442 87.2384 395.38 110.506 397.994 140.581H398.363V127.455C398.363 93.5584 380.251 65.9988 357.985 65.9988Z" fill="#565672"/>
<path d="M369.277 65.9485C337.914 52.8225 316.234 92.167 316.234 127.186V142.408H399.753V127.186C399.753 103.65 390.103 74.8165 369.277 65.9485ZM382.01 92.3011H389.516C392.599 98.7384 394.861 106.165 396.034 114.178H382.01V92.3011ZM388.863 90.9935H382.01V80.4491C384.574 83.5169 386.886 87.054 388.863 90.9935ZM380.821 79.108V90.9935H369.261V70.3574C373.449 72.2852 377.353 75.2691 380.821 79.1248V79.108ZM332.603 92.2843H342.32V114.161H332.603V92.2843ZM342.32 116.106V138.167H332.603V116.106H342.32ZM355.623 114.161H343.51V92.2843H355.623V114.161ZM357.985 92.2843H368.088V114.161H357.985V92.2843ZM355.623 116.106V138.167H343.51V116.106H355.623ZM357.985 116.106H368.088V138.167H357.985V116.106ZM369.261 92.2843H380.821V114.161H369.261V92.2843ZM380.821 116.106V138.167H369.261V116.106H380.821ZM368.088 90.9767H357.985V67.7925C361.487 67.7925 364.871 68.4966 368.088 69.8209V90.9767ZM355.623 67.9099V90.9767H343.51V72.0505C347.296 69.7371 351.367 68.3122 355.623 67.9266V67.9099ZM342.32 72.7881V90.96H332.603V82.1087C335.501 78.3034 338.768 75.1518 342.32 72.7713V72.7881ZM331.43 83.7181V90.96H327.107C328.414 88.3616 329.872 85.9476 331.43 83.7181ZM326.454 92.2676H331.43V114.144H319.937C321.109 106.114 323.371 98.7048 326.454 92.2676ZM318.998 127.153C318.998 123.381 319.233 119.676 319.685 116.106H331.447V138.167H319.015V127.153H318.998ZM396.972 138.167H382.01V116.106H396.285C396.737 119.693 396.972 123.381 396.972 127.153V138.167Z" fill="#262816"/>
<path opacity="0.18" d="M341.03 92.871H333.591V113.373H341.03V92.871Z" fill="#BDDBDB"/>
<path opacity="0.18" d="M354.434 93.4578H343.979V112.384H354.434V93.4578Z" fill="#BDDBDB"/>
<path opacity="0.18" d="M354.434 117.866H343.979V136.088H354.434V117.866Z" fill="#BDDBDB"/>
<path opacity="0.18" d="M367.25 69.6198H359.024V89.8368H367.25V69.6198Z" fill="#BDDBDB"/>
<path opacity="0.18" d="M367.25 93.7428H359.024V114.463H367.25V93.7428Z" fill="#BDDBDB"/>
<path opacity="0.18" d="M367.233 118.151H358.538V136.373H367.233V118.151Z" fill="#BDDBDB"/>
<path d="M430.111 193.135H399.418V259.603H430.111V193.135Z" fill="#6E6E7F"/>
<path d="M410.308 197.946H430.128V193.135H399.418V259.603H410.308V197.946Z" fill="#565672"/>
<path d="M431.502 260.642V192.079H398.027V260.642H431.502ZM428.738 211.86H415.72V194.174H428.738V211.86ZM415.72 212.698H428.738V230.049H415.72V212.698ZM414.614 194.174V211.86H400.809V194.174H414.614ZM414.614 230.049H400.809V212.698H414.614V230.049ZM400.809 258.547V230.887H414.614V258.547H400.809ZM415.72 258.547V230.887H428.738V258.547H415.72Z" fill="#262816"/>
<path d="M233.904 86.8193H203.211V141.553H233.904V86.8193Z" fill="#6E6E7F"/>
<path d="M214.101 90.7756H233.921V86.8193H203.211V141.536H214.101V90.7756Z" fill="#565672"/>
<path d="M235.295 142.408V85.9644H201.82V142.408H235.295ZM232.531 102.242H219.513V87.6743H232.531V102.242ZM219.513 102.929H232.531V117.212H219.513V102.929ZM218.407 87.6743V102.242H204.601V87.6743H218.407ZM218.407 117.212H204.601V102.929H218.407V117.212ZM204.601 140.681V117.916H218.407V140.681H204.601ZM219.513 140.681V117.916H232.531V140.681H219.513Z" fill="#262816"/>
<path d="M506.912 86.8193H476.219V141.553H506.912V86.8193Z" fill="#6E6E7F"/>
<path d="M487.126 90.7756H506.929V86.8193H476.219V141.536H487.126V90.7756Z" fill="#565672"/>
<path d="M474.845 85.9644V142.408H508.319V85.9644H474.845ZM505.538 102.259H492.52V87.6911H505.538V102.259ZM492.52 102.946H505.538V117.229H492.52V102.946ZM491.414 87.6911V102.259H477.609V87.6911H491.414ZM491.414 117.229H477.609V102.946H491.414V117.229ZM477.609 140.698V117.933H491.414V140.698H477.609ZM492.52 140.698V117.933H505.538V140.698H492.52Z" fill="#262816"/>
<path d="M316.603 193.319H285.909V259.787H316.603V193.319Z" fill="#6E6E7F"/>
<path d="M296.799 198.13H316.603V193.319H285.909V259.787H296.799V198.13Z" fill="#565672"/>
<path d="M284.519 192.28V260.844H317.993V192.28H284.519ZM315.212 212.061H302.194V194.375H315.212V212.061ZM302.194 212.899H315.212V230.25H302.194V212.899ZM301.088 194.375V212.061H287.283V194.375H301.088ZM301.088 230.25H287.283V212.899H301.088V230.25ZM287.283 258.748V231.088H301.088V258.748H287.283ZM302.194 258.748V231.088H315.212V258.748H302.194Z" fill="#262816"/>
<path d="M353.696 194.996H361.788C376.565 194.996 388.578 206.998 388.578 221.801V279.435H326.906V221.801C326.906 207.015 338.902 194.996 353.696 194.996Z" fill="#6B6F7B"/>
<path d="M356.812 197.493V279.418L388.578 279.435L360.013 278.261L356.812 197.493Z" fill="#2B110B"/>
<path d="M351.099 238.682H348.82V259.787H351.099V238.682Z" fill="#2B110B"/>
<path d="M367.066 238.682H364.787V259.787H367.066V238.682Z" fill="#2B110B"/>
<path d="M189.723 279.418H21.0425V160.982L105.383 84.8076L189.723 160.982V279.418Z" fill="#F4EADF"/>
<path d="M189.723 244.968V279.418H13.5703V244.968H189.723Z" fill="#B7B1AB"/>
<path d="M203.796 167.185H191.599L105.383 93.2398L16.5528 167.185H4.37256L105.383 82.0919L203.796 167.185Z" fill="#42372D"/>
<path opacity="0.35" d="M160.94 267.432H160.471V186.966H68.1556V267.432H66.1283C63.3806 267.432 61.1523 268.957 61.1523 270.851V272.98H165.916V270.851C165.916 268.974 163.687 267.432 160.94 267.432Z" fill="#42372D"/>
<path d="M148.123 188.005H68.7588V268.002H148.123V188.005Z" fill="#6E6E7F"/>
<path d="M85.2616 200.461H148.123V188.005H68.7588V268.002H85.2616V200.461Z" fill="#565672"/>
<path d="M149.513 265.185V186.949H67.3847V265.118H66.5805C63.5815 265.118 61.1689 267.549 61.1689 270.533H154.372C154.372 267.733 152.244 265.454 149.53 265.169L149.513 265.185ZM85.9985 265.135H70.1659V248.992H85.9985V265.135ZM85.9985 247.315H70.1659V228.423H85.9985V247.315ZM85.9985 226.746H70.1659V208.407H85.9985V226.746ZM85.9985 206.73H70.1659V189.045H85.9985V206.73ZM106.589 265.118H88.2268V248.975H106.589V265.118ZM106.589 247.299H88.2268V228.406H106.589V247.299ZM106.589 226.729H88.2268V208.39H106.589V226.729ZM106.589 206.714H88.2268V189.028H106.589V206.714ZM129.593 265.102H108.818V248.958H129.593V265.102ZM129.593 247.282H108.818V228.389H129.593V247.282ZM129.593 226.713H108.818V208.373H129.593V226.713ZM129.593 206.697H108.818V189.011H129.593V206.697ZM146.766 265.085H131.804V248.941H146.766V265.085ZM146.766 247.265H131.804V228.372H146.766V247.265ZM146.766 226.696H131.804V208.356H146.766V226.696ZM146.766 206.68H131.804V188.994H146.766V206.68Z" fill="#262816"/>
<path opacity="0.18" d="M105.4 209.077H89.1152V225.807H105.4V209.077Z" fill="#BDDBDB"/>
<path opacity="0.18" d="M127.851 228.942H110.041V245.991H127.851V228.942Z" fill="#BDDBDB"/>
<path opacity="0.18" d="M128.605 190.151H110.041V206.043H128.605V190.151Z" fill="#BDDBDB"/>
<path opacity="0.18" d="M128.605 209.077H110.041V224.651H128.605V209.077Z" fill="#BDDBDB"/>
<path opacity="0.18" d="M104.646 229.361H89.1152V246.527H104.646V229.361Z" fill="#BDDBDB"/>
<path opacity="0.18" d="M104.646 250.584H89.8188V263.76H104.646V250.584Z" fill="#BDDBDB"/>
<path opacity="0.35" d="M109.773 125.745C86.0824 125.745 65.9775 140.229 65.9775 158.92V166.866H153.551V158.92C153.551 140.078 133.262 125.745 109.756 125.745H109.773Z" fill="#42372D"/>
<path d="M67.3853 162.91V156.573C67.3853 140.212 85.4964 126.901 107.763 126.901C130.029 126.901 148.14 140.212 148.14 156.573V162.91H67.3853Z" fill="#6E6E7F"/>
<path d="M107.746 126.918C85.4793 126.918 67.3682 140.229 67.3682 156.59V162.927H67.7368C70.3504 148.409 87.2888 137.178 107.746 137.178C128.202 137.178 145.141 148.409 147.754 162.927H148.123V156.59C148.123 140.229 130.012 126.918 107.746 126.918Z" fill="#565672"/>
<path d="M131.771 131.344C131.386 131.143 130.984 130.941 130.598 130.757C127.08 129.064 123.193 127.74 119.038 126.901C118.653 126.818 118.25 126.751 117.865 126.683C114.632 126.097 111.247 125.778 107.762 125.778C102.669 125.778 97.7937 126.449 93.2869 127.673C92.8848 127.773 92.4994 127.89 92.1141 128.008C88.6125 129.047 85.3454 130.422 82.3967 132.098C81.9946 132.316 81.6093 132.551 81.2239 132.785C71.9422 138.418 66.0112 146.934 66.0112 156.473V163.815H149.53V156.473C149.53 146.096 142.527 136.926 131.805 131.377L131.771 131.344ZM145.794 150.169H131.771V139.608H139.277C142.36 142.71 144.621 146.297 145.794 150.169ZM138.623 138.988H131.771V133.909C134.334 135.384 136.646 137.094 138.623 138.988ZM130.581 133.255V138.988H119.021V129.03C123.21 129.969 127.113 131.394 130.581 133.255ZM82.3632 139.608H92.0806V150.169H82.3632V139.608ZM92.0806 151.108V161.753H82.3632V151.108H92.0806ZM93.2534 139.608H105.367V150.169H93.2534V139.608ZM105.367 151.108V161.753H93.2534V151.108H105.367ZM107.729 139.608H117.832V150.169H107.729V139.608ZM107.729 151.108H117.832V161.753H107.729V151.108ZM119.004 139.608H130.565V150.169H119.004V139.608ZM130.565 151.108V161.753H119.004V151.108H130.565ZM117.832 138.971H107.729V127.79C111.231 127.79 114.615 128.125 117.832 128.762V138.971ZM105.367 127.874V138.971H93.2534V129.835C97.0398 128.712 101.111 128.058 105.367 127.874ZM92.0638 130.204V138.971H82.3465V134.697C85.2449 132.869 88.512 131.344 92.0638 130.187V130.204ZM81.1737 135.484V138.988H76.8344C78.1412 137.731 79.5988 136.574 81.1737 135.484ZM76.1977 139.608H81.1737V150.169H69.6804C70.8532 146.297 73.115 142.71 76.1977 139.608ZM68.7421 156.439C68.7421 154.612 68.9767 152.835 69.4291 151.108H81.1904V161.753H68.7589V156.439H68.7421ZM146.716 161.753H131.754V151.108H146.029C146.481 152.835 146.716 154.612 146.716 156.439V161.753Z" fill="#262816"/>
<path opacity="0.18" d="M90.7904 139.877H83.3516V149.784H90.7904V139.877Z" fill="#BDDBDB"/>
<path opacity="0.18" d="M104.194 140.162H93.7393V149.298H104.194V140.162Z" fill="#BDDBDB"/>
<path opacity="0.18" d="M104.194 151.946H93.7393V160.747H104.194V151.946Z" fill="#BDDBDB"/>
<path opacity="0.18" d="M116.994 128.662H108.784V138.418H116.994V128.662Z" fill="#BDDBDB"/>
<path opacity="0.18" d="M116.994 140.296H108.784V150.304H116.994V140.296Z" fill="#BDDBDB"/>
<path opacity="0.18" d="M116.994 152.081H108.298V160.882H116.994V152.081Z" fill="#BDDBDB"/>
<path d="M604.973 205.825C604.973 231.457 593.547 252.227 579.44 252.227C565.333 252.227 553.907 231.457 553.907 205.825C553.907 180.193 566.121 137.261 580.227 137.261C594.334 137.261 604.973 180.21 604.973 205.825Z" fill="#806BF6"/>
<path d="M596.479 207.401C595.943 206.915 595.072 206.915 594.536 207.401L581.535 219.236V197.644L591.068 184.703C591.353 184.317 591.235 183.797 590.816 183.546C590.398 183.294 589.828 183.395 589.543 183.781L581.535 194.643V182.758C581.535 181.719 580.613 180.88 579.457 180.88C578.301 180.88 577.396 181.719 577.396 182.758V209.044L565.92 199.002C565.367 198.516 564.496 198.533 563.976 199.036C563.44 199.522 563.457 200.326 564.01 200.796L577.396 212.53V280.34C577.396 281.379 578.318 282.217 579.457 282.217C580.596 282.217 581.535 281.379 581.535 280.34V222.773L596.496 209.161C597.032 208.675 597.032 207.887 596.496 207.401H596.479Z" fill="#351007"/>
<path d="M656.04 205.825C656.04 231.457 644.613 252.227 630.506 252.227C616.399 252.227 604.973 231.457 604.973 205.825C604.973 180.193 617.187 137.261 631.294 137.261C645.401 137.261 656.04 180.21 656.04 205.825Z" fill="#806BF6"/>
<path d="M647.529 207.401C646.992 206.915 646.121 206.915 645.585 207.401L632.584 219.236V197.644L642.117 184.703C642.402 184.317 642.285 183.797 641.866 183.546C641.447 183.294 640.877 183.395 640.592 183.781L632.584 194.643V182.758C632.584 181.719 631.662 180.88 630.506 180.88C629.35 180.88 628.446 181.719 628.446 182.758V209.044L616.969 199.002C616.416 198.516 615.545 198.533 615.026 199.036C614.49 199.522 614.506 200.326 615.059 200.796L628.446 212.53V279.954C628.446 280.993 629.367 281.832 630.506 281.832C631.646 281.832 632.584 280.993 632.584 279.954V222.773L647.545 209.161C648.081 208.675 648.081 207.887 647.545 207.401H647.529Z" fill="#351007"/>
<path d="M658 279.418H0V285H658V279.418Z" fill="#0E4C14"/>
</svg>
