<svg width="104" height="32" viewBox="0 0 104 32" fill="none" xmlns="http://www.w3.org/2000/svg">
<path d="M37.44 24V9.1H42.98C43.9933 9.1 44.8867 9.28667 45.66 9.66C46.4467 10.02 47.06 10.5533 47.5 11.26C47.94 11.9533 48.16 12.8 48.16 13.8C48.16 14.8267 47.9133 15.7 47.42 16.42C46.94 17.14 46.2867 17.6733 45.46 18.02L48.88 24H45.8L42.14 17.46L43.9 18.5H40.16V24H37.44ZM40.16 16.1H43.02C43.5133 16.1 43.94 16.0067 44.3 15.82C44.66 15.62 44.94 15.3467 45.14 15C45.34 14.6533 45.44 14.2533 45.44 13.8C45.44 13.3333 45.34 12.9333 45.14 12.6C44.94 12.2533 44.66 11.9867 44.3 11.8C43.94 11.6 43.5133 11.5 43.02 11.5H40.16V16.1ZM54.9972 24.24C53.8772 24.24 52.8972 23.9867 52.0572 23.48C51.2172 22.9733 50.5639 22.2867 50.0972 21.42C49.6305 20.5533 49.3972 19.5933 49.3972 18.54C49.3972 17.4467 49.6305 16.48 50.0972 15.64C50.5772 14.7867 51.2239 14.1133 52.0372 13.62C52.8639 13.1267 53.7839 12.88 54.7972 12.88C55.6505 12.88 56.3972 13.02 57.0372 13.3C57.6905 13.58 58.2439 13.9667 58.6972 14.46C59.1505 14.9533 59.4972 15.52 59.7372 16.16C59.9772 16.7867 60.0972 17.4667 60.0972 18.2C60.0972 18.3867 60.0839 18.58 60.0572 18.78C60.0439 18.98 60.0105 19.1533 59.9572 19.3H51.5572V17.3H58.4772L57.2372 18.24C57.3572 17.6267 57.3239 17.08 57.1372 16.6C56.9639 16.12 56.6705 15.74 56.2572 15.46C55.8572 15.18 55.3705 15.04 54.7972 15.04C54.2505 15.04 53.7639 15.18 53.3372 15.46C52.9105 15.7267 52.5839 16.1267 52.3572 16.66C52.1439 17.18 52.0639 17.8133 52.1172 18.56C52.0639 19.2267 52.1505 19.82 52.3772 20.34C52.6172 20.8467 52.9639 21.24 53.4172 21.52C53.8839 21.8 54.4172 21.94 55.0172 21.94C55.6172 21.94 56.1239 21.8133 56.5372 21.56C56.9639 21.3067 57.2972 20.9667 57.5372 20.54L59.6572 21.58C59.4439 22.1 59.1105 22.56 58.6572 22.96C58.2039 23.36 57.6639 23.6733 57.0372 23.9C56.4239 24.1267 55.7439 24.24 54.9972 24.24ZM62.0833 24V13.12H64.5433V15.26L64.3433 14.88C64.5966 14.2267 65.0099 13.7333 65.5833 13.4C66.1699 13.0533 66.8499 12.88 67.6233 12.88C68.4233 12.88 69.1299 13.0533 69.7433 13.4C70.3699 13.7467 70.8566 14.2333 71.2033 14.86C71.5499 15.4733 71.7233 16.1867 71.7233 17V24H69.1033V17.62C69.1033 17.14 69.0099 16.7267 68.8233 16.38C68.6366 16.0333 68.3766 15.7667 68.0433 15.58C67.7233 15.38 67.3433 15.28 66.9033 15.28C66.4766 15.28 66.0966 15.38 65.7633 15.58C65.4299 15.7667 65.1699 16.0333 64.9833 16.38C64.7966 16.7267 64.7033 17.14 64.7033 17.62V24H62.0833ZM78.8988 24.12C77.6721 24.12 76.7188 23.7867 76.0388 23.12C75.3721 22.44 75.0388 21.4867 75.0388 20.26V15.46H73.1588V13.12H73.3588C73.8921 13.12 74.3054 12.98 74.5988 12.7C74.8921 12.42 75.0388 12.0133 75.0388 11.48V10.64H77.6588V13.12H80.1588V15.46H77.6588V20.12C77.6588 20.48 77.7188 20.7867 77.8388 21.04C77.9721 21.2933 78.1721 21.4867 78.4388 21.62C78.7188 21.7533 79.0721 21.82 79.4988 21.82C79.5921 21.82 79.6988 21.8133 79.8188 21.8C79.9521 21.7867 80.0788 21.7733 80.1988 21.76V24C80.0121 24.0267 79.7988 24.0533 79.5588 24.08C79.3188 24.1067 79.0988 24.12 78.8988 24.12ZM86.0805 24.24C85.2405 24.24 84.5071 24.0533 83.8805 23.68C83.2671 23.3067 82.7938 22.7867 82.4605 22.12C82.1405 21.4533 81.9805 20.6733 81.9805 19.78V13.12H84.6005V19.56C84.6005 20.0133 84.6871 20.4133 84.8605 20.76C85.0471 21.0933 85.3071 21.36 85.6405 21.56C85.9871 21.7467 86.3738 21.84 86.8005 21.84C87.2271 21.84 87.6071 21.7467 87.9405 21.56C88.2738 21.36 88.5338 21.0867 88.7205 20.74C88.9071 20.3933 89.0005 19.98 89.0005 19.5V13.12H91.6205V24H89.1405V21.86L89.3605 22.24C89.1071 22.9067 88.6871 23.4067 88.1005 23.74C87.5271 24.0733 86.8538 24.24 86.0805 24.24ZM98.1959 24.24C97.0359 24.24 96.0226 23.9667 95.1559 23.42C94.3026 22.86 93.7159 22.1067 93.3959 21.16L95.3559 20.22C95.6359 20.8333 96.0226 21.3133 96.5159 21.66C97.0226 22.0067 97.5826 22.18 98.1959 22.18C98.6759 22.18 99.0559 22.0733 99.3359 21.86C99.6159 21.6467 99.7559 21.3667 99.7559 21.02C99.7559 20.8067 99.6959 20.6333 99.5759 20.5C99.4693 20.3533 99.3159 20.2333 99.1159 20.14C98.9293 20.0333 98.7226 19.9467 98.4959 19.88L96.7159 19.38C95.7959 19.1133 95.0959 18.7067 94.6159 18.16C94.1493 17.6133 93.9159 16.9667 93.9159 16.22C93.9159 15.5533 94.0826 14.9733 94.4159 14.48C94.7626 13.9733 95.2359 13.58 95.8359 13.3C96.4493 13.02 97.1493 12.88 97.9359 12.88C98.9626 12.88 99.8693 13.1267 100.656 13.62C101.443 14.1133 102.003 14.8067 102.336 15.7L100.336 16.64C100.149 16.1467 99.8359 15.7533 99.3959 15.46C98.9559 15.1667 98.4626 15.02 97.9159 15.02C97.4759 15.02 97.1293 15.12 96.8759 15.32C96.6226 15.52 96.4959 15.78 96.4959 16.1C96.4959 16.3 96.5493 16.4733 96.6559 16.62C96.7626 16.7667 96.9093 16.8867 97.0959 16.98C97.2959 17.0733 97.5226 17.16 97.7759 17.24L99.5159 17.76C100.409 18.0267 101.096 18.4267 101.576 18.96C102.069 19.4933 102.316 20.1467 102.316 20.92C102.316 21.5733 102.143 22.1533 101.796 22.66C101.449 23.1533 100.969 23.54 100.356 23.82C99.7426 24.1 99.0226 24.24 98.1959 24.24Z" fill="#100A55"/>
<g clip-path="url(#clip0_2_1551)">
<path d="M25.3333 11.6134L18.2226 6.0827C17.5986 5.59725 16.8306 5.33368 16.04 5.33368C15.2494 5.33368 14.4813 5.59725 13.8573 6.0827L6.74529 11.6134C6.31788 11.9458 5.97208 12.3714 5.7343 12.8578C5.49651 13.3443 5.37304 13.8786 5.37329 14.42V24.02C5.37329 24.7273 5.65424 25.4056 6.15434 25.9057C6.65444 26.4058 7.33271 26.6867 8.03996 26.6867H24.04C24.7472 26.6867 25.4255 26.4058 25.9256 25.9057C26.4257 25.4056 26.7066 24.7273 26.7066 24.02V14.42C26.7066 13.3227 26.2 12.2867 25.3333 11.6134Z" fill="#7065F0" stroke="#7065F0" stroke-width="3" stroke-linecap="round" stroke-linejoin="round"/>
<path d="M21.3334 20C18.3867 21.7774 13.6107 21.7774 10.6667 20" stroke="#F9FAFB" stroke-width="3" stroke-linecap="round" stroke-linejoin="round"/>
</g>
<defs>
<clipPath id="clip0_2_1551">
<rect width="32" height="32" fill="white"/>
</clipPath>
</defs>
</svg>
